<?xml version="1.0" encoding="UTF-8"?>
<svg version="1.1" xmlns="http://www.w3.org/2000/svg" width="200" height="200">
<path d="M0 0 C66 0 132 0 200 0 C200 66 200 132 200 200 C134 200 68 200 0 200 C0 134 0 68 0 0 Z " fill="#1E142C" transform="translate(0,0)"/>
<path d="M0 0 C1.77206191 0.00025118 3.5441287 0.00581561 5.31616211 0.01586914 C6.14079956 0.01687622 6.96543701 0.0178833 7.81506348 0.0189209 C10.90789166 0.02416947 14.0007001 0.03813062 17.09350586 0.05102539 C24.00288086 0.07165039 30.91225586 0.09227539 38.03100586 0.11352539 C38.03100586 14.30352539 38.03100586 28.49352539 38.03100586 43.11352539 C31.12163086 43.13415039 24.21225586 43.15477539 17.09350586 43.17602539 C14.90991455 43.18512939 12.72632324 43.1942334 10.4765625 43.20361328 C8.75642966 43.20653237 7.03629614 43.20908094 5.31616211 43.21118164 C3.96355286 43.21885559 3.96355286 43.21885559 2.58361816 43.22668457 C0.39908841 43.22699421 -1.78535744 43.17598409 -3.96899414 43.11352539 C-5.89156589 41.19095364 -5.09807838 38.33267431 -5.10794067 35.77478027 C-5.10591644 34.88625366 -5.10389221 33.99772705 -5.10180664 33.08227539 C-5.10276337 32.17602417 -5.10372009 31.26977295 -5.10470581 30.33605957 C-5.10538767 28.41601492 -5.10353296 26.49596798 -5.09936523 24.57592773 C-5.09401706 21.62616835 -5.09931002 18.67656125 -5.10571289 15.72680664 C-5.10505211 13.86612922 -5.10377095 12.00545189 -5.10180664 10.14477539 C-5.10383087 9.25624878 -5.1058551 8.36772217 -5.10794067 7.45227051 C-5.07976769 0.14529692 -5.07976769 0.14529692 0 0 Z " fill="#241734" transform="translate(127.968994140625,69.886474609375)"/>
<path d="M0 0 C2.26171875 -0.3125 2.26171875 -0.3125 5 0 C7.01953125 2.1875 7.01953125 2.1875 8.8125 5 C9.41707031 5.928125 10.02164063 6.85625 10.64453125 7.8125 C11.31548828 8.8953125 11.31548828 8.8953125 12 10 C14.46140906 7.64605371 16.17429738 5.7076302 17.9375 2.75 C18.618125 1.8425 19.29875 0.935 20 0 C22.75 -0.375 22.75 -0.375 25 0 C23.60580561 4.46142206 21.14534646 7.45177554 18.14453125 10.9375 C16.78720962 12.96103705 16.78720962 12.96103705 17.1015625 15.42578125 C18.16176721 18.46349821 19.63603284 20.61498527 21.5625 23.1875 C25 27.80080483 25 27.80080483 25 30 C22.8125 30.3125 22.8125 30.3125 20 30 C17.4375 27.625 17.4375 27.625 15 25 C12.83379456 23.70480005 12.83379456 23.70480005 11 23 C10.01 25.475 10.01 25.475 9 28 C8.34 28 7.68 28 7 28 C6.690625 28.639375 6.38125 29.27875 6.0625 29.9375 C5 32 5 32 4 33 C2.35066772 32.93600474 0.70384869 32.79926084 -0.9375 32.625 C-2.28134766 32.48964844 -2.28134766 32.48964844 -3.65234375 32.3515625 C-6 32 -6 32 -8 31 C-8 23.74 -8 16.48 -8 9 C-6.35 9 -4.7 9 -3 9 C-2.67 14.61 -2.34 20.22 -2 26 C-0.35 26 1.3 26 3 26 C3.37125 24.9171875 3.37125 24.9171875 3.75 23.8125 C5.10983674 20.75286734 6.82917754 18.5326262 9 16 C7.6586265 12.1723433 5.95037939 9.43369025 3.375 6.3125 C0 2.21428571 0 2.21428571 0 0 Z " fill="#67B519" transform="translate(136,76)"/>
<path d="M0 0 C4.70715168 0.5648582 8.42572908 1.47524303 13 3 C13 10.26 13 17.52 13 25 C11.68 25 10.36 25 9 25 C9 24.34 9 23.68 9 23 C8.484375 23.33 7.96875 23.66 7.4375 24 C4.05216491 25.38885542 1.62487235 25.45310904 -2 25 C-4.36273436 22.88024187 -5.81154003 21.19401607 -6.31640625 17.99536133 C-6.39331746 15.7130718 -6.34943534 13.46877615 -6.25 11.1875 C-6.23195312 10.39923828 -6.21390625 9.61097656 -6.1953125 8.79882812 C-6.14844048 6.86535739 -6.0767041 4.93251715 -6 3 C-5.195625 2.87625 -4.39125 2.7525 -3.5625 2.625 C-2.716875 2.41875 -1.87125 2.2125 -1 2 C-0.67 1.34 -0.34 0.68 0 0 Z " fill="#241D2E" transform="translate(61,82)"/>
<path d="M0 0 C1.77206191 0.00025118 3.5441287 0.00581561 5.31616211 0.01586914 C6.14079956 0.01687622 6.96543701 0.0178833 7.81506348 0.0189209 C10.90789166 0.02416947 14.0007001 0.03813062 17.09350586 0.05102539 C24.00288086 0.07165039 30.91225586 0.09227539 38.03100586 0.11352539 C38.03100586 14.30352539 38.03100586 28.49352539 38.03100586 43.11352539 C31.12163086 43.13415039 24.21225586 43.15477539 17.09350586 43.17602539 C14.90991455 43.18512939 12.72632324 43.1942334 10.4765625 43.20361328 C8.75642966 43.20653237 7.03629614 43.20908094 5.31616211 43.21118164 C3.96355286 43.21885559 3.96355286 43.21885559 2.58361816 43.22668457 C0.39908841 43.22699421 -1.78535744 43.17598409 -3.96899414 43.11352539 C-5.89156589 41.19095364 -5.09807838 38.33267431 -5.10794067 35.77478027 C-5.10591644 34.88625366 -5.10389221 33.99772705 -5.10180664 33.08227539 C-5.10276337 32.17602417 -5.10372009 31.26977295 -5.10470581 30.33605957 C-5.10538767 28.41601492 -5.10353296 26.49596798 -5.09936523 24.57592773 C-5.09401706 21.62616835 -5.09931002 18.67656125 -5.10571289 15.72680664 C-5.10505211 13.86612922 -5.10377095 12.00545189 -5.10180664 10.14477539 C-5.10383087 9.25624878 -5.1058551 8.36772217 -5.10794067 7.45227051 C-5.07976769 0.14529692 -5.07976769 0.14529692 0 0 Z M-2.96899414 1.11352539 C-2.96899414 14.31352539 -2.96899414 27.51352539 -2.96899414 41.11352539 C10.23100586 41.11352539 23.43100586 41.11352539 37.03100586 41.11352539 C37.03100586 27.91352539 37.03100586 14.71352539 37.03100586 1.11352539 C33.40100586 1.11352539 29.77100586 1.11352539 26.03100586 1.11352539 C26.69100586 2.43352539 27.35100586 3.75352539 28.03100586 5.11352539 C30.01100586 5.11352539 31.99100586 5.11352539 34.03100586 5.11352539 C34.52600586 7.09352539 34.52600586 7.09352539 35.03100586 9.11352539 C34.37100586 9.11352539 33.71100586 9.11352539 33.03100586 9.11352539 C32.69327148 9.75161133 32.35553711 10.38969727 32.00756836 11.04711914 C31.33854492 12.28655273 31.33854492 12.28655273 30.65600586 13.55102539 C30.21514648 14.37473633 29.77428711 15.19844727 29.32006836 16.04711914 C28.03100586 18.11352539 28.03100586 18.11352539 26.03100586 19.11352539 C26.03100586 20.10352539 26.03100586 21.09352539 26.03100586 22.11352539 C26.69100586 22.11352539 27.35100586 22.11352539 28.03100586 22.11352539 C28.36100586 23.76352539 28.69100586 25.41352539 29.03100586 27.11352539 C29.69100586 27.11352539 30.35100586 27.11352539 31.03100586 27.11352539 C30.53600586 28.59852539 30.53600586 28.59852539 30.03100586 30.11352539 C29.16159092 28.87408263 28.31095129 27.6214548 27.46850586 26.36352539 C26.9928418 25.66743164 26.51717773 24.97133789 26.02709961 24.25415039 C25.03100586 22.11352539 25.03100586 22.11352539 25.15600586 20.16821289 C26.30032126 17.48111511 27.85918105 15.33599533 29.59350586 12.98852539 C32.19401739 9.8586311 32.19401739 9.8586311 33.03100586 6.11352539 C30.69234755 5.69500813 30.69234755 5.69500813 28.03100586 6.11352539 C25.9011235 8.29106667 25.9011235 8.29106667 24.21850586 11.11352539 C23.61393555 12.04165039 23.00936523 12.96977539 22.38647461 13.92602539 C21.71551758 15.00883789 21.71551758 15.00883789 21.03100586 16.11352539 C18.91061951 13.49838222 16.90008842 10.91714923 15.03100586 8.11352539 C15.77350586 8.03102539 16.51600586 7.94852539 17.28100586 7.86352539 C20.57403181 6.96542741 21.89077374 5.72936465 24.03100586 3.11352539 C24.03100586 2.45352539 24.03100586 1.79352539 24.03100586 1.11352539 C15.12100586 1.11352539 6.21100586 1.11352539 -2.96899414 1.11352539 Z " fill="#191F13" transform="translate(127.968994140625,69.886474609375)"/>
<path d="M0 0 C0.77419785 0.00142502 1.54839569 0.00285004 2.34605408 0.00431824 C3.66235558 -0.00029671 3.66235558 -0.00029671 5.00524902 -0.00500488 C6.42872902 0.00577339 6.42872902 0.00577339 7.88096619 0.01676941 C8.85239059 0.01722763 9.823815 0.01768585 10.82467651 0.01815796 C12.87999186 0.02118192 14.93530489 0.0290725 16.99058533 0.04142761 C20.14878899 0.05968312 23.30669966 0.06193735 26.46495056 0.06169128 C28.45779166 0.06660634 30.45063075 0.07243461 32.44346619 0.07926941 C33.86998253 0.08093864 33.86998253 0.08093864 35.32531738 0.0826416 C36.19969955 0.08902145 37.07408173 0.09540131 37.97496033 0.10197449 C39.13506371 0.10769218 39.13506371 0.10769218 40.31860352 0.11352539 C42.09580994 0.24723816 42.09580994 0.24723816 43.09580994 1.24723816 C43.18868254 2.65948862 43.21327765 4.0763275 43.20933533 5.49162292 C43.2092598 6.39248123 43.20918427 7.29333954 43.20910645 8.22149658 C43.20394516 9.20065536 43.19878387 10.17981415 43.19346619 11.18864441 C43.19205124 12.18605148 43.19063629 13.18345856 43.18917847 14.21109009 C43.18356108 17.41066939 43.17100565 20.61017985 43.15830994 23.80973816 C43.15329718 25.97314861 43.14873388 28.13656015 43.14463806 30.29997253 C43.13358601 35.61575141 43.11683097 40.93148987 43.09580994 46.24723816 C40.80378006 47.3932531 39.50124303 47.37961055 36.95323181 47.39250183 C35.67180298 47.40207161 35.67180298 47.40207161 34.36448669 47.41183472 C32.97852295 47.41350395 32.97852295 47.41350395 31.56455994 47.41520691 C30.61770325 47.41853531 29.67084656 47.42186371 28.69529724 47.42529297 C26.69127387 47.43036062 24.68724205 47.43270134 22.68321228 47.43254089 C19.6083649 47.43472922 16.53387512 47.4528917 13.45909119 47.47184753 C11.515082 47.47478105 9.57107111 47.47676613 7.62705994 47.47770691 C6.24109619 47.48848518 6.24109619 47.48848518 4.82713318 47.4994812 C3.97284729 47.49640457 3.1185614 47.49332794 2.23838806 47.49015808 C1.48497131 47.4915831 0.73155457 47.49300812 -0.04469299 47.49447632 C-1.90419006 47.24723816 -1.90419006 47.24723816 -3.90419006 45.24723816 C-4.15815735 43.38774109 -4.15815735 43.38774109 -4.16297913 41.10466003 C-4.16928345 40.25037415 -4.17558777 39.39608826 -4.18208313 38.51591492 C-4.17803467 37.59193909 -4.17398621 36.66796326 -4.16981506 35.71598816 C-4.17172852 34.76913147 -4.17364197 33.82227478 -4.1756134 32.84672546 C-4.17697579 30.84269444 -4.17327562 28.83865462 -4.16493225 26.8346405 C-4.15423354 23.75973263 -4.16482578 20.68540902 -4.17762756 17.61051941 C-4.17630598 15.6665077 -4.17374361 13.72249635 -4.16981506 11.77848816 C-4.17588776 10.39252441 -4.17588776 10.39252441 -4.18208313 8.9785614 C-4.17577881 8.12427551 -4.16947449 7.26998962 -4.16297913 6.38981628 C-4.16138794 5.63639954 -4.15979675 4.88298279 -4.15815735 4.10673523 C-3.78509617 1.37525678 -2.72509522 0.35382367 0 0 Z M-1.90419006 3.24723816 C-2.00532706 6.26531879 -2.04387915 9.26004329 -2.03700256 12.27848816 C-2.03795929 13.18473938 -2.03891602 14.0909906 -2.03990173 15.02470398 C-2.0405836 16.94474863 -2.03872889 18.86479557 -2.03456116 20.78483582 C-2.02921299 23.7345952 -2.03450594 26.6842023 -2.04090881 29.63395691 C-2.04024803 31.49463433 -2.03896687 33.35531166 -2.03700256 35.21598816 C-2.03902679 36.10451477 -2.04105103 36.99304138 -2.0431366 37.90849304 C-2.43001806 41.89552674 -2.43001806 41.89552674 -0.90419006 45.24723816 C2.19811138 45.33597348 5.27868352 45.36249503 8.38096619 45.34489441 C9.20560364 45.34388733 10.03024109 45.34288025 10.87986755 45.34184265 C13.97269574 45.33659408 17.06550418 45.32263293 20.15830994 45.30973816 C27.06768494 45.28911316 33.97705994 45.26848816 41.09580994 45.24723816 C41.09580994 31.05723816 41.09580994 16.86723816 41.09580994 2.24723816 C34.18643494 2.22661316 27.27705994 2.20598816 20.15830994 2.18473816 C17.97471863 2.17563416 15.79112732 2.16653015 13.54136658 2.15715027 C11.82123374 2.15423118 10.10110022 2.15168261 8.38096619 2.14958191 C7.47922668 2.14446594 6.57748718 2.13934998 5.64842224 2.13407898 C1.54869547 1.71177033 1.54869547 1.71177033 -1.90419006 3.24723816 Z " fill="#68A929" transform="translate(124.90419006347656,67.75276184082031)"/>
<path d="M0 0 C3.95403662 0.26360244 5.65370756 0.86143155 8.75 3.25 C10.75 6.25 10.75 6.25 10.75 13.25 C5.47 13.25 0.19 13.25 -5.25 13.25 C-3.79711014 17.8341963 -3.79711014 17.8341963 -2.25 19.25 C0.66608998 19.58361919 0.66608998 19.58361919 3.75 19.25 C4.7694119 18.26979625 5.77246356 17.27196992 6.75 16.25 C8.9375 16.5625 8.9375 16.5625 10.75 17.25 C7.125 22.125 7.125 22.125 3.75 23.25 C-0.44987818 23.63887761 -2.54607238 23.70908323 -6.125 21.375 C-9.26710663 18.23289337 -9.47183366 16.29095878 -9.625 11.9375 C-9.60817807 7.65912233 -9.53926707 6.62085521 -6.8125 3.125 C-5.966875 2.50625 -5.12125 1.8875 -4.25 1.25 C-3.25 0.25 -3.25 0.25 0 0 Z " fill="#E2DFE5" transform="translate(89.25,83.75)"/>
<path d="M0 0 C9 1 9 1 12.13671875 3.984375 C13.01580645 5.21956549 13.86597561 6.47579891 14.6875 7.75 C15.3671582 8.68199219 15.3671582 8.68199219 16.06054688 9.6328125 C17.32421875 11.484375 17.32421875 11.484375 19 15 C18.4140625 17.71484375 18.4140625 17.71484375 17 20 C16.63261719 20.66644531 16.26523438 21.33289063 15.88671875 22.01953125 C14.67919961 23.82491003 13.53315369 25.45813521 12 27 C9.1875 27.4375 9.1875 27.4375 7 27 C7 28.65 7 30.3 7 32 C6.67 32 6.34 32 6 32 C6 24.74 6 17.48 6 10 C4.35 10 2.7 10 1 10 C1 16.93 1 23.86 1 31 C0.67 31 0.34 31 0 31 C0 20.77 0 10.54 0 0 Z " fill="#161C13" transform="translate(127,75)"/>
<path d="M0 0 C6.93 0 13.86 0 21 0 C21 1.32 21 2.64 21 4 C15.72 4 10.44 4 5 4 C5 6.97 5 9.94 5 13 C9.29 13 13.58 13 18 13 C18 14.32 18 15.64 18 17 C13.71 17 9.42 17 5 17 C5 21.62 5 26.24 5 31 C3.35 31 1.7 31 0 31 C0 20.77 0 10.54 0 0 Z " fill="#D7D4DA" transform="translate(31,76)"/>
<path d="M0 0 C8.91 0 17.82 0 27 0 C24.38235294 5.23529412 24.38235294 5.23529412 22 7 C19.375 7.25 19.375 7.25 17 7 C16.67 6.67 16.34 6.34 16 6 C14.96875 6.020625 13.9375 6.04125 12.875 6.0625 C8.75174144 5.99599583 5.88386823 5.26820187 2 4 C2.16371094 5.24652344 2.32742187 6.49304688 2.49609375 7.77734375 C3.11856191 13.3795572 3.11094198 18.93205157 3.0625 24.5625 C3.05798828 25.57119141 3.05347656 26.57988281 3.04882812 27.61914062 C3.03716788 30.07945329 3.01923752 32.53973492 3 35 C7.95 36.485 7.95 36.485 13 38 C13 38.66 13 39.32 13 40 C8.71 40 4.42 40 0 40 C0 26.8 0 13.6 0 0 Z " fill="#1A1225" transform="translate(125,71)"/>
<path d="M0 0 C0.89740402 -0.00307663 1.79480804 -0.00615326 2.71940613 -0.00932312 C3.679944 -0.0021376 4.64048187 0.00504791 5.63012695 0.01245117 C6.62091751 0.01290939 7.61170807 0.01336761 8.63252258 0.01383972 C10.72296347 0.01685727 12.8134022 0.02472869 14.90380859 0.03710938 C18.11669807 0.05541018 21.32930008 0.0576187 24.54223633 0.05737305 C26.57153571 0.06228665 28.60083314 0.06811428 30.63012695 0.07495117 C31.59673752 0.076064 32.56334808 0.07717682 33.55924988 0.07832336 C34.44719742 0.08470322 35.33514496 0.09108307 36.25 0.09765625 C37.03513474 0.10146805 37.82026947 0.10527985 38.62919617 0.10920715 C40.4309082 0.24291992 40.4309082 0.24291992 41.4309082 1.24291992 C41.5240271 2.74710732 41.54836848 4.25563348 41.54443359 5.76269531 C41.54435806 6.72361588 41.54428253 7.68453644 41.54420471 8.67457581 C41.53904343 9.71935593 41.53388214 10.76413605 41.52856445 11.84057617 C41.52714951 12.90457138 41.52573456 13.96856659 41.52427673 15.06480408 C41.51865884 18.47837075 41.50610331 21.89187292 41.4934082 25.30541992 C41.48839551 27.61336169 41.4838322 29.92130447 41.47973633 32.22924805 C41.4686836 37.90049419 41.45192807 43.57170245 41.4309082 49.24291992 C34.79235079 49.29356481 28.15384306 49.32863016 21.51513672 49.3527832 C19.2560032 49.3628505 16.99688273 49.3765053 14.73779297 49.39379883 C11.49353821 49.418015 8.24945549 49.42939567 5.00512695 49.43823242 C3.99254318 49.44855499 2.97995941 49.45887756 1.93669128 49.46951294 C0.99594254 49.469664 0.05519379 49.46981506 -0.9140625 49.4699707 C-1.74235062 49.47441193 -2.57063873 49.47885315 -3.42402649 49.48342896 C-5.5690918 49.24291992 -5.5690918 49.24291992 -8.5690918 47.24291992 C-8.92985535 45.29403687 -8.92985535 45.29403687 -8.90966797 42.88500977 C-8.90944138 41.98422699 -8.90921478 41.08344421 -8.90898132 40.15536499 C-8.89349747 39.18136749 -8.87801361 38.20737 -8.86206055 37.20385742 C-8.8578157 36.2078653 -8.85357086 35.21187317 -8.84919739 34.18569946 C-8.8323686 30.99616767 -8.79470855 27.80726159 -8.7565918 24.61791992 C-8.7415504 22.45907486 -8.72786105 20.30021993 -8.71557617 18.14135742 C-8.68245146 12.8416638 -8.63221076 7.54233655 -8.5690918 2.24291992 C-5.57801863 0.52476393 -3.43792249 -0.00622091 0 0 Z M-6.5690918 3.24291992 C-6.87389051 5.16663858 -6.87389051 5.16663858 -6.82788086 7.38549805 C-6.83418518 8.23978394 -6.8404895 9.09406982 -6.84698486 9.97424316 C-6.8429364 10.89821899 -6.83888794 11.82219482 -6.8347168 12.77416992 C-6.83663025 13.72102661 -6.8385437 14.6678833 -6.84051514 15.64343262 C-6.84187752 17.64746364 -6.83817736 19.65150346 -6.82983398 21.65551758 C-6.81913527 24.73042545 -6.82972751 27.80474906 -6.8425293 30.87963867 C-6.84120771 32.82365038 -6.83864534 34.76766173 -6.8347168 36.71166992 C-6.83876526 37.63564575 -6.84281372 38.55962158 -6.84698486 39.51159668 C-6.84068054 40.36588257 -6.83437622 41.22016846 -6.82788086 42.1003418 C-6.82628967 42.85375854 -6.82469849 43.60717529 -6.82305908 44.38342285 C-6.72647861 46.48880999 -6.72647861 46.48880999 -4.5690918 48.24291992 C-2.64504302 48.54090111 -2.64504302 48.54090111 -0.42651367 48.48583984 C0.42777222 48.48891647 1.28205811 48.4919931 2.16223145 48.49516296 C3.54819519 48.48438469 3.54819519 48.48438469 4.9621582 48.47338867 C6.38244324 48.47270134 6.38244324 48.47270134 7.8314209 48.47200012 C9.83546195 48.46897602 11.83950061 48.46108502 13.84350586 48.44873047 C16.91829721 48.43049471 19.99278722 48.42822061 23.06762695 48.4284668 C25.01163998 48.4235509 26.95565097 48.41772226 28.8996582 48.41088867 C29.82363403 48.40977585 30.74760986 48.40866302 31.69958496 48.40751648 C32.55387085 48.40113663 33.40815674 48.39475677 34.28833008 48.38818359 C35.04174683 48.3843718 35.79516357 48.38056 36.57141113 48.37663269 C38.52471321 48.355147 38.52471321 48.355147 40.4309082 47.24291992 C40.45617882 40.85254761 40.47374138 34.46218809 40.48583984 28.07177734 C40.49088128 25.8959912 40.49771428 23.72020845 40.50634766 21.54443359 C40.51842158 18.42438925 40.52413825 15.30438954 40.52856445 12.18432617 C40.53372574 11.20516739 40.53888702 10.22600861 40.54420471 9.21717834 C40.54428024 8.31632004 40.54435577 7.41546173 40.54443359 6.48730469 C40.54665421 5.69010513 40.54887482 4.89290558 40.55116272 4.07154846 C40.63141276 2.22369711 40.63141276 2.22369711 39.4309082 1.24291992 C38.06031228 1.13979956 36.68451162 1.10443039 35.31005859 1.09765625 C34.43567642 1.0912764 33.56129425 1.08489655 32.66041565 1.07832336 C31.70940475 1.07721054 30.75839386 1.07609772 29.77856445 1.07495117 C28.80809677 1.07162277 27.83762909 1.06829437 26.8377533 1.06486511 C24.780675 1.05979162 22.72358845 1.05745692 20.66650391 1.05761719 C17.51036076 1.05543166 14.3545675 1.03728301 11.19848633 1.01831055 C9.2043469 1.01537659 7.21020581 1.01339181 5.21606445 1.01245117 C4.26707779 1.00526566 3.31809113 0.99808014 2.34034729 0.99067688 C1.02404579 0.99529182 1.02404579 0.99529182 -0.31884766 1 C-1.0930455 0.99857498 -1.86724335 0.99714996 -2.66490173 0.99568176 C-4.81027773 1.07732251 -4.81027773 1.07732251 -6.5690918 3.24291992 Z " fill="#1B300B" transform="translate(127.569091796875,66.757080078125)"/>
<path d="M0 0 C-0.99 0.7734375 -0.99 0.7734375 -2 1.5625 C-4.66569671 4.81131787 -4.22761668 6.9028997 -4 11 C-4.33 11.66 -4.66 12.32 -5 13 C-7.31 12.67 -9.62 12.34 -12 12 C-12.33 12.66 -12.66 13.32 -13 14 C-13.33 13.34 -13.66 12.68 -14 12 C-14.886875 11.855625 -15.77375 11.71125 -16.6875 11.5625 C-20.25966371 10.95590616 -22.83889 9.73108405 -26 8 C-26 5.36 -26 2.72 -26 0 C-25.67 0.66 -25.34 1.32 -25 2 C-22.69 2 -20.38 2 -18 2 C-18 1.34 -18 0.68 -18 0 C-16.68 0 -15.36 0 -14 0 C-13.67 1.65 -13.34 3.3 -13 5 C-12.67 4.01 -12.34 3.02 -12 2 C-10.68 2.33 -9.36 2.66 -8 3 C-7.67 2.01 -7.34 1.02 -7 0 C-2.25 -1.125 -2.25 -1.125 0 0 Z " fill="#261736" transform="translate(143,121)"/>
<path d="M0 0 C1.32 0 2.64 0 4 0 C4.06058594 1.13179688 4.12117188 2.26359375 4.18359375 3.4296875 C4.26799917 4.91147145 4.35264717 6.3932416 4.4375 7.875 C4.47681641 8.62136719 4.51613281 9.36773437 4.55664062 10.13671875 C4.71573624 14.19986864 4.71573624 14.19986864 6 18 C8.3431213 17.74438677 10.67843403 17.40729228 13 17 C14.52106634 13.95786733 14.37429338 10.71952428 14.5625 7.375 C14.60568359 6.66859375 14.64886719 5.9621875 14.69335938 5.234375 C14.79944751 3.48981463 14.90022889 1.74493303 15 0 C16.32 0 17.64 0 19 0 C19 7.26 19 14.52 19 22 C17.68 22 16.36 22 15 22 C15 21.34 15 20.68 15 20 C14.484375 20.33 13.96875 20.66 13.4375 21 C10.05216491 22.38885542 7.62487235 22.45310904 4 22 C1.63726564 19.88024187 0.18845997 18.19401607 -0.31640625 14.99536133 C-0.39331746 12.7130718 -0.34943534 10.46877615 -0.25 8.1875 C-0.23195312 7.39923828 -0.21390625 6.61097656 -0.1953125 5.79882812 C-0.14844048 3.86535739 -0.0767041 1.93251715 0 0 Z " fill="#EAE8EC" transform="translate(55,85)"/>
<path d="M0 0 C-0.33 4.95 -0.66 9.9 -1 15 C-1.99 15 -2.98 15 -4 15 C-4.66 12.69 -5.32 10.38 -6 8 C-10.62 8 -15.24 8 -20 8 C-20 5.03 -20 2.06 -20 -1 C-17.22964291 -1.22162857 -14.45961005 -1.42779249 -11.6875 -1.625 C-10.90181641 -1.68945312 -10.11613281 -1.75390625 -9.30664062 -1.8203125 C-8.54931641 -1.871875 -7.79199219 -1.9234375 -7.01171875 -1.9765625 C-6.31522217 -2.02893066 -5.61872559 -2.08129883 -4.90112305 -2.13525391 C-3 -2 -3 -2 0 0 Z " fill="#1A1224" transform="translate(56,81)"/>
<path d="M0 0 C1.65 0 3.3 0 5 0 C5.33 5.61 5.66 11.22 6 17 C7.32 17.33 8.64 17.66 10 18 C9.67 18.66 9.34 19.32 9 20 C10.32 20 11.64 20 13 20 C15.02638936 17.799401 15.02638936 17.799401 16.75 15 C17.36359375 14.071875 17.9771875 13.14375 18.609375 12.1875 C19.06828125 11.465625 19.5271875 10.74375 20 10 C22.5 12.3125 22.5 12.3125 25 15 C25 15.99 25 16.98 25 18 C24.566875 17.525625 24.13375 17.05125 23.6875 16.5625 C21.97690387 14.76313043 21.97690387 14.76313043 19 14 C18.34 15.65 17.68 17.3 17 19 C16.34 19 15.68 19 15 19 C14.690625 19.639375 14.38125 20.27875 14.0625 20.9375 C13 23 13 23 12 24 C10.35066772 23.93600474 8.70384869 23.79926084 7.0625 23.625 C6.16660156 23.53476563 5.27070313 23.44453125 4.34765625 23.3515625 C2 23 2 23 0 22 C0 14.74 0 7.48 0 0 Z " fill="#263819" transform="translate(128,85)"/>
<path d="M0 0 C3.63 0 7.26 0 11 0 C11 8.25 11 16.5 11 25 C9.02 25 7.04 25 5 25 C4.34 25.33 3.68 25.66 3 26 C2.67 24.35 2.34 22.7 2 21 C1.34 21 0.68 21 0 21 C0.375 19.0625 0.375 19.0625 1 17 C1.66 16.67 2.32 16.34 3 16 C4.12224855 14.11986894 4.12224855 14.11986894 5.125 11.9375 C5.65480469 10.83728516 5.65480469 10.83728516 6.1953125 9.71484375 C6.46085938 9.14894531 6.72640625 8.58304688 7 8 C7.66 8 8.32 8 9 8 C8.67 6.68 8.34 5.36 8 4 C6.02 4 4.04 4 2 4 C1.34 2.68 0.68 1.36 0 0 Z " fill="#1B1226" transform="translate(154,71)"/>
<path d="M0 0 C0.66 0 1.32 0 2 0 C2.33 13.86 2.66 27.72 3 42 C16.86 42.33 30.72 42.66 45 43 C45 43.66 45 44.32 45 45 C38.91277254 45.04934154 32.8256608 45.08569167 26.73828125 45.10986328 C24.66632053 45.11993712 22.59437407 45.13359666 20.52246094 45.15087891 C17.54879236 45.17506664 14.5753113 45.18646908 11.6015625 45.1953125 C10.20618759 45.21079636 10.20618759 45.21079636 8.78262329 45.22659302 C7.92188202 45.22674408 7.06114075 45.22689514 6.17431641 45.22705078 C5.41486725 45.231492 4.65541809 45.23593323 3.87295532 45.24050903 C2 45 2 45 0 43 C-0.24050903 41.12704468 -0.24050903 41.12704468 -0.22705078 38.82568359 C-0.22689972 37.96494232 -0.22674866 37.10420105 -0.22659302 36.21737671 C-0.21627045 35.28712677 -0.20594788 34.35687683 -0.1953125 33.3984375 C-0.1924826 32.44683746 -0.18965271 31.49523743 -0.18673706 30.51480103 C-0.17551989 27.46807408 -0.15041263 24.42163846 -0.125 21.375 C-0.11497218 19.31250424 -0.10584599 17.25000388 -0.09765625 15.1875 C-0.07557554 10.12488733 -0.0410353 5.0624931 0 0 Z " fill="#75A843" transform="translate(121,70)"/>
<path d="M0 0 C3.63 0 7.26 0 11 0 C11 1.65 11 3.3 11 5 C12.65 4.67 14.3 4.34 16 4 C16 2.68 16 1.36 16 0 C16.99 0 17.98 0 19 0 C19 1.98 19 3.96 19 6 C19.66 6 20.32 6 21 6 C21 4.02 21 2.04 21 0 C21.66 0 22.32 0 23 0 C23 2.31 23 4.62 23 7 C20.69 7 18.38 7 16 7 C15.67 7.66 15.34 8.32 15 9 C13.3603125 8.4740625 13.3603125 8.4740625 11.6875 7.9375 C8.09079627 6.66960546 8.09079627 6.66960546 5 8 C3.33378384 8.03874921 1.66605828 8.0450286 0 8 C0 5.36 0 2.72 0 0 Z " fill="#B0AAB6" transform="translate(71,121)"/>
<path d="M0 0 C0.66 0 1.32 0 2 0 C2 13.2 2 26.4 2 40 C22.295 40.495 22.295 40.495 43 41 C43 41.33 43 41.66 43 42 C37.03686834 42.02464574 31.07376605 42.042834 25.1105957 42.05493164 C23.08031702 42.05997278 21.05004198 42.06680557 19.01977539 42.07543945 C16.10822653 42.08751467 13.1967255 42.09323034 10.28515625 42.09765625 C8.91485008 42.10539818 8.91485008 42.10539818 7.51686096 42.11329651 C5.34424573 42.11349168 3.17172704 42.06211805 1 42 C0 41 0 41 -0.11352539 37.12280273 C-0.11336621 35.39305833 -0.10766849 33.66330919 -0.09765625 31.93359375 C-0.0962413 31.02497086 -0.09482635 30.11634796 -0.09336853 29.18019104 C-0.08775193 26.26592779 -0.07519665 23.35174019 -0.0625 20.4375 C-0.05748714 18.46679798 -0.05292386 16.49609476 -0.04882812 14.52539062 C-0.03777711 9.68356441 -0.02050138 4.84179505 0 0 Z " fill="#1C3707" transform="translate(123,71)"/>
<path d="M0 0 C3.16115776 1.36983503 3.9927092 1.9890638 6 5 C6.47428278 9.82187494 6.43034873 12.10742485 4.3125 16.5 C3.549375 17.325 2.78625 18.15 2 19 C0.35 19 -1.3 19 -3 19 C-3 13.72 -3 8.44 -3 3 C-2.34 2.67 -1.68 2.34 -1 2 C-1 2.99 -1 3.98 -1 5 C-0.34 5 0.32 5 1 5 C0.67 3.35 0.34 1.7 0 0 Z " fill="#18171D" transform="translate(137,83)"/>
<path d="M0 0 C0.99 0 1.98 0 3 0 C3 9.57 3 19.14 3 29 C2.01 29 1.02 29 0 29 C0 19.43 0 9.86 0 0 Z " fill="#FEFDFE" transform="translate(106,77)"/>
<path d="M0 0 C1.32 0 2.64 0 4 0 C4 6.93 4 13.86 4 21 C2.68 21 1.36 21 0 21 C0 14.07 0 7.14 0 0 Z " fill="#69BC15" transform="translate(128,85)"/>
<path d="M0 0 C-0.639375 0.5775 -1.27875 1.155 -1.9375 1.75 C-4.03928669 4.04285821 -4.41385929 5.06312654 -5 8 C-6.60407328 8.02708567 -8.2082785 8.04643483 -9.8125 8.0625 C-11.15248047 8.07990234 -11.15248047 8.07990234 -12.51953125 8.09765625 C-15 8 -15 8 -18 7 C-18 4.69 -18 2.38 -18 0 C-16.68 0 -15.36 0 -14 0 C-13.67 1.65 -13.34 3.3 -13 5 C-12.67 4.01 -12.34 3.02 -12 2 C-10.68 2.33 -9.36 2.66 -8 3 C-7.67 2.01 -7.34 1.02 -7 0 C-2.25 -1.125 -2.25 -1.125 0 0 Z " fill="#A9A1B3" transform="translate(143,121)"/>
<path d="M0 0 C0.33 0.99 0.66 1.98 1 3 C2.98 3 4.96 3 7 3 C7.33 4.32 7.66 5.64 8 7 C7.34 7 6.68 7 6 7 C5.566875 8.0828125 5.566875 8.0828125 5.125 9.1875 C4.08333333 11.79166667 3.04166667 14.39583333 2 17 C1.34 17 0.68 17 0 17 C-0.33 17.99 -0.66 18.98 -1 20 C-0.34 20 0.32 20 1 20 C1.33 21.65 1.66 23.3 2 25 C2.66 25 3.32 25 4 25 C3.67 26.32 3.34 27.64 3 29 C1.96387729 27.59447701 0.94655075 26.17508306 -0.0625 24.75 C-0.63097656 23.96109375 -1.19945312 23.1721875 -1.78515625 22.359375 C-3 20 -3 20 -2.9375 18.09375 C-1.58672704 15.07702373 0.19636645 12.4751474 2.0625 9.75 C2.79597656 8.67234375 3.52945313 7.5946875 4.28515625 6.484375 C4.85105469 5.66453125 5.41695312 4.8446875 6 4 C4.35 4 2.7 4 1 4 C0.67 4.99 0.34 5.98 0 7 C-0.33 7 -0.66 7 -1 7 C-1.04254356 5.00045254 -1.04080783 2.99958364 -1 1 C-0.67 0.67 -0.34 0.34 0 0 Z " fill="#182410" transform="translate(155,72)"/>
<path d="M0 0 C0.66 0 1.32 0 2 0 C2 0.66 2 1.32 2 2 C2.66 2.33 3.32 2.66 4 3 C-2.625 6.875 -2.625 6.875 -6 8 C-6 8.99 -6 9.98 -6 11 C-4.35 11 -2.7 11 -1 11 C-1 11.33 -1 11.66 -1 12 C-2.98 12 -4.96 12 -7 12 C-7.33 11.34 -7.66 10.68 -8 10 C-10.64 10.99 -13.28 11.98 -16 13 C-16 12.34 -16 11.68 -16 11 C-12.7 9.35 -9.4 7.7 -6 6 C-8.31 6 -10.62 6 -13 6 C-10.28505068 3.28505068 -7.78527931 3.23368715 -4.09375 2.5625 C-1.8002393 2.1331915 -1.8002393 2.1331915 0 0 Z " fill="#C2BACA" transform="translate(52,119)"/>
<path d="M0 0 C0.94552734 0.16242188 0.94552734 0.16242188 1.91015625 0.328125 C3.91015625 3.328125 3.91015625 3.328125 3.91015625 6.328125 C-0.04984375 6.328125 -4.00984375 6.328125 -8.08984375 6.328125 C-6.7267275 -0.48745626 -6.55567963 0.2379557 0 0 Z " fill="#302939" transform="translate(92.08984375,87.671875)"/>
<path d="M0 0 C2.97 0 5.94 0 9 0 C9 2.31 9 4.62 9 7 C5.92677456 7.91058531 3.19902639 8.08886184 0 8 C0 5.36 0 2.72 0 0 Z " fill="#342D3C" transform="translate(71,121)"/>
<path d="M0 0 C1.32 0 2.64 0 4 0 C4 6.27 4 12.54 4 19 C3.67 19 3.34 19 3 19 C2.67 17.35 2.34 15.7 2 14 C1.01 14.495 1.01 14.495 0 15 C0 10.05 0 5.1 0 0 Z " fill="#F6F4F8" transform="translate(70,85)"/>
<path d="M0 0 C1.32 0.66 2.64 1.32 4 2 C4 5.3 4 8.6 4 12 C2.35 11.67 0.7 11.34 -1 11 C-1 10.34 -1 9.68 -1 9 C-1.66 9.66 -2.32 10.32 -3 11 C-3 8.36 -3 5.72 -3 3 C-2.34 2.67 -1.68 2.34 -1 2 C-1 2.99 -1 3.98 -1 5 C-0.34 5 0.32 5 1 5 C0.67 3.35 0.34 1.7 0 0 Z " fill="#1B1129" transform="translate(137,83)"/>
<path d="M0 0 C2.31 0.33 4.62 0.66 7 1 C7 2.98 7 4.96 7 7 C6.34 7 5.68 7 5 7 C5 7.66 5 8.32 5 9 C3.68 9 2.36 9 1 9 C-0.4783226 6.04335481 -0.06032783 3.25770263 0 0 Z " fill="#16250C" transform="translate(127,75)"/>
<path d="M0 0 C0.33 0.66 0.66 1.32 1 2 C2.98 2 4.96 2 7 2 C7 4.31 7 6.62 7 9 C5.1875 9.625 5.1875 9.625 3 10 C2.01 9.34 1.02 8.68 0 8 C-0.40843923 5.28796348 -0.13336867 2.7562858 0 0 Z " fill="#A39BAE" transform="translate(117,121)"/>
<path d="M0 0 C0.825 0.20625 1.65 0.4125 2.5 0.625 C3.49 0.625 4.48 0.625 5.5 0.625 C4.22200196 3.47591869 3.12103327 5.84644171 0.5 7.625 C-2.6875 7.3125 -2.6875 7.3125 -5.5 6.625 C-5.6875 4.25 -5.6875 4.25 -5.5 1.625 C-2.5 -0.375 -2.5 -0.375 0 0 Z " fill="#261D2F" transform="translate(51.5,125.375)"/>
<path d="M0 0 C0.99 0 1.98 0 3 0 C3.33 1.98 3.66 3.96 4 6 C0.55930376 8.29379749 -0.72290301 9 -5 9 C-5 6.69 -5 4.38 -5 2 C-4.01 2.495 -4.01 2.495 -3 3 C-3 3.66 -3 4.32 -3 5 C-1.35 5 0.3 5 2 5 C1.34 3.35 0.68 1.7 0 0 Z " fill="#272A24" transform="translate(159,101)"/>
<path d="M0 0 C2.1875 0.3125 2.1875 0.3125 4 1 C0.375 5.875 0.375 5.875 -3 7 C-5.33299825 7.03954234 -7.66708189 7.04401732 -10 7 C-10 6.01 -10 5.02 -10 4 C-8.906875 3.896875 -7.81375 3.79375 -6.6875 3.6875 C-2.8550979 2.97298435 -2.47994558 2.59803822 0 0 Z " fill="#F0EDF3" transform="translate(96,100)"/>
<path d="M0 0 C1.32 0 2.64 0 4 0 C4 1.98 4 3.96 4 6 C-0.95 6 -5.9 6 -11 6 C-11 5.34 -11 4.68 -11 4 C-7.37 4 -3.74 4 0 4 C0 2.68 0 1.36 0 0 Z " fill="#F3F1F5" transform="translate(96,90)"/>
<path d="M0 0 C2.25 -0.3125 2.25 -0.3125 5 0 C7.375 2.125 7.375 2.125 9 5 C8.75 8.3125 8.75 8.3125 8 11 C2.19794344 5.35475578 2.19794344 5.35475578 0 2 C0 1.34 0 0.68 0 0 Z " fill="#68BA17" transform="translate(136,76)"/>
<path d="M0 0 C2.5 2.3125 2.5 2.3125 5 5 C5 5.99 5 6.98 5 8 C4.566875 7.525625 4.13375 7.05125 3.6875 6.5625 C1.97690387 4.76313043 1.97690387 4.76313043 -1 4 C-1.66 5.65 -2.32 7.3 -3 9 C-3.66 9 -4.32 9 -5 9 C-5.33 9.99 -5.66 10.98 -6 12 C-8.31 12 -10.62 12 -13 12 C-12.67 11.34 -12.34 10.68 -12 10 C-10.88044922 10.1546875 -10.88044922 10.1546875 -9.73828125 10.3125 C-6.81858955 10.28124108 -6.81858955 10.28124108 -4.98046875 7.8125 C-4.38878906 6.884375 -3.79710937 5.95625 -3.1875 5 C-2.28064453 3.6078125 -2.28064453 3.6078125 -1.35546875 2.1875 C-0.90816406 1.465625 -0.46085938 0.74375 0 0 Z " fill="#213010" transform="translate(148,95)"/>
<path d="M0 0 C19.305 0.495 19.305 0.495 39 1 C39 1.33 39 1.66 39 2 C26.13 2.33 13.26 2.66 0 3 C0 2.01 0 1.02 0 0 Z " fill="#68B023" transform="translate(123,68)"/>
<path d="M0 0 C1.66611905 -0.042721 3.33382885 -0.04063832 5 0 C6 1 6 1 6.125 3.5 C6 6 6 6 5 7 C3.33382885 7.04063832 1.66611905 7.042721 0 7 C0 4.69 0 2.38 0 0 Z " fill="#CEC7D4" transform="translate(110,121)"/>
<path d="M0 0 C1.65 0 3.3 0 5 0 C3.68775452 3.93673644 2.08089673 6.22719294 -1 9 C-1 8.01 -1 7.02 -1 6 C-1.66 6 -2.32 6 -3 6 C-2 4 -1 2 0 0 Z " fill="#68A91D" transform="translate(156,76)"/>
<path d="M0 0 C0.33 0 0.66 0 1 0 C1 1.65 1 3.3 1 5 C2.98 5 4.96 5 7 5 C6.34 6.65 5.68 8.3 5 10 C2.03 9.505 2.03 9.505 -1 9 C-0.67 6.03 -0.34 3.06 0 0 Z " fill="#2E203C" transform="translate(124,123)"/>
<path d="M0 0 C3.16717283 1.58358642 4.73268318 2.45263699 6.3125 5.6875 C6.539375 6.450625 6.76625 7.21375 7 8 C4.6875 8.3125 4.6875 8.3125 2 8 C0.125 5.6875 0.125 5.6875 -1 3 C-0.67 2.01 -0.34 1.02 0 0 Z " fill="#6EB91F" transform="translate(154,98)"/>
<path d="M0 0 C1.32 0 2.64 0 4 0 C4 2.31 4 4.62 4 7 C3.01 7.495 3.01 7.495 2 8 C1.01 7.34 0.02 6.68 -1 6 C-1.25 3.4375 -1.25 3.4375 -1 1 C-0.67 0.67 -0.34 0.34 0 0 Z " fill="#67C408" transform="translate(147,88)"/>
<path d="M0 0 C0.33 0 0.66 0 1 0 C1 1.98 1 3.96 1 6 C3.475 6.99 3.475 6.99 6 8 C4.625 9.5 4.625 9.5 3 11 C2.34 11 1.68 11 1 11 C0.6596875 10.0409375 0.6596875 10.0409375 0.3125 9.0625 C-0.85250896 6.72806339 -0.85250896 6.72806339 -3.625 6.25 C-4.40875 6.1675 -5.1925 6.085 -6 6 C-6 5.67 -6 5.34 -6 5 C-4.35 4.67 -2.7 4.34 -1 4 C-0.67 2.68 -0.34 1.36 0 0 Z " fill="#352941" transform="translate(116,123)"/>
<path d="M0 0 C1.65 0 3.3 0 5 0 C5 1.32 5 2.64 5 4 C4.01 4 3.02 4 2 4 C2 4.66 2 5.32 2 6 C2.99 6 3.98 6 5 6 C5 6.66 5 7.32 5 8 C3.35 8 1.7 8 0 8 C0 5.36 0 2.72 0 0 Z " fill="#CAC3D0" transform="translate(71,121)"/>
<path d="M0 0 C1.65 0 3.3 0 5 0 C5.38133299 1.9914056 5.71325582 3.99279077 6 6 C5 7 5 7 1.9375 7.0625 C0.4834375 7.0315625 0.4834375 7.0315625 -1 7 C-0.01 6.34 0.98 5.68 2 5 C1.34 4.67 0.68 4.34 0 4 C0 2.68 0 1.36 0 0 Z " fill="#D8D3DB" transform="translate(98,121)"/>
<path d="M0 0 C-0.639375 0.5775 -1.27875 1.155 -1.9375 1.75 C-3.98223868 3.98062401 -4.58205199 5.07436391 -5 8 C-6.32 7.67 -7.64 7.34 -9 7 C-8.34 4.69 -7.68 2.38 -7 0 C-2.25 -1.125 -2.25 -1.125 0 0 Z " fill="#685B75" transform="translate(143,121)"/>
<path d="M0 0 C0.66 0.66 1.32 1.32 2 2 C1.67 2.99 1.34 3.98 1 5 C0.34 5 -0.32 5 -1 5 C-1.28875 5.639375 -1.5775 6.27875 -1.875 6.9375 C-3 9 -3 9 -5 10 C-4 8 -3 6 -2 4 C-2.99 3.34 -3.98 2.68 -5 2 C-3.35 1.34 -1.7 0.68 0 0 Z " fill="#2E2538" transform="translate(101,97)"/>
<path d="M0 0 C3.39417765 3.12621626 5.6062718 5.56541027 7 10 C6.01 10.99 5.02 11.98 4 13 C3.896875 11.9275 3.79375 10.855 3.6875 9.75 C3.01397764 6.07624166 2.34125011 4.74842404 0 2 C0 1.34 0 0.68 0 0 Z " fill="#1B3008" transform="translate(139,82)"/>
<path d="M0 0 C1.98 0 3.96 0 6 0 C6 0.66 6 1.32 6 2 C5.34 2 4.68 2 4 2 C4 3.65 4 5.3 4 7 C3.34 7 2.68 7 2 7 C2 5.35 2 3.7 2 2 C1.34 2 0.68 2 0 2 C0 1.34 0 0.68 0 0 Z " fill="#D9D3DD" transform="translate(62,121)"/>
<path d="M0 0 C-1.98 2.97 -1.98 2.97 -4 6 C-5.32 4.68 -6.64 3.36 -8 2 C-4.77208445 -0.1519437 -3.71599191 -0.20086443 0 0 Z " fill="#172B0A" transform="translate(153,81)"/>
<path d="M0 0 C0 3 0 3 -1.625 5.25 C-4 7 -4 7 -7.25 6.75 C-8.1575 6.5025 -9.065 6.255 -10 6 C-10 5.67 -10 5.34 -10 5 C-8.35 5 -6.7 5 -5 5 C-5 4.34 -5 3.68 -5 3 C-2.5 1.375 -2.5 1.375 0 0 Z " fill="#494054" transform="translate(56,126)"/>
<path d="M0 0 C1.32 0.33 2.64 0.66 4 1 C3.67 1.66 3.34 2.32 3 3 C3 4.32 3 5.64 3 7 C2.01 7 1.02 7 0 7 C0 4.69 0 2.38 0 0 Z " fill="#756B82" transform="translate(125,121)"/>
<path d="M0 0 C1.98 0.495 1.98 0.495 4 1 C3.67 2.32 3.34 3.64 3 5 C1.68 4.67 0.36 4.34 -1 4 C-0.67 2.68 -0.34 1.36 0 0 Z " fill="#69AB29" transform="translate(129,77)"/>
<path d="M0 0 C0.66 0 1.32 0 2 0 C2.33 1.98 2.66 3.96 3 6 C1.68 6.33 0.36 6.66 -1 7 C-1.04254356 5.00045254 -1.04080783 2.99958364 -1 1 C-0.67 0.67 -0.34 0.34 0 0 Z " fill="#6C6278" transform="translate(121,124)"/>
<path d="M0 0 C0.66 0 1.32 0 2 0 C2 0.66 2 1.32 2 2 C2.66 2.33 3.32 2.66 4 3 C1.6875 4.5625 1.6875 4.5625 -1 6 C-1.99 5.67 -2.98 5.34 -4 5 C-2.71937515 3.2925002 -1.38232443 1.62626404 0 0 Z " fill="#AAA2B1" transform="translate(52,119)"/>
<path d="M0 0 C0.99 0 1.98 0 3 0 C3.33 1.32 3.66 2.64 4 4 C2.68 4.33 1.36 4.66 0 5 C-0.5625 3.0625 -0.5625 3.0625 -1 1 C-0.67 0.67 -0.34 0.34 0 0 Z " fill="#211928" transform="translate(86,88)"/>
<path d="M0 0 C0.598125 0.165 1.19625 0.33 1.8125 0.5 C4.11344336 1.1114124 4.11344336 1.1114124 7 1 C7.66 1.66 8.32 2.32 9 3 C5.37 3.33 1.74 3.66 -2 4 C-1.34 2.68 -0.68 1.36 0 0 Z " fill="#181220" transform="translate(85,81)"/>
<path d="M0 0 C1.32 0.33 2.64 0.66 4 1 C4 2.32 4 3.64 4 5 C2.68 5 1.36 5 0 5 C0 3.35 0 1.7 0 0 Z " fill="#39323F" transform="translate(111,122)"/>
<path d="M0 0 C2.5 2.3125 2.5 2.3125 5 5 C5 5.99 5 6.98 5 8 C4.566875 7.525625 4.13375 7.05125 3.6875 6.5625 C1.97690387 4.76313043 1.97690387 4.76313043 -1 4 C-0.67 2.68 -0.34 1.36 0 0 Z " fill="#172D0A" transform="translate(148,95)"/>
<path d="M0 0 C2.97 0 5.94 0 9 0 C7.68 1.32 6.36 2.64 5 4 C2.525 3.01 2.525 3.01 0 2 C0 1.34 0 0.68 0 0 Z " fill="#342D3D" transform="translate(38,124)"/>
<path d="M0 0 C1.65 0 3.3 0 5 0 C5.66 1.32 6.32 2.64 7 4 C5.68 3.34 4.36 2.68 3 2 C2.67 2.66 2.34 3.32 2 4 C1.34 2.68 0.68 1.36 0 0 Z " fill="#629727" transform="translate(136,76)"/>
</svg>
